<svg id="Capa_1" data-name="Capa 1" xmlns="http://www.w3.org/2000/svg" viewBox="0 0 384 384"><title>icon_</title><path d="M4.61,156.86c1.64-8.81,2.64-17.81,5-26.42,6.83-24.65,20.63-44.95,40.41-61.08C68.39,54.4,89.43,44.92,113,43.07a353.76,353.76,0,0,1,51.06.18c22.89,1.52,45.81,3.66,68.49,7,32.9,4.92,65.16,12.7,95.1,28,15.66,8,29.82,17.93,40.76,32a73.5,73.5,0,0,1,15.81,46c.09,17.18.18,34.35,0,51.53-.45,39.36-24.62,72.69-62,84.54a94.44,94.44,0,0,1-26.93,4.23c-28.54.41-55.28,7.7-81.36,18.64-17.27,7.24-34.45,14.82-52.81,19.12-36.22,8.49-70.59,4.46-101.82-16.48-29.79-20-47.58-48.1-53.23-83.69-.55-3.51-1-7-1.48-10.56Zm364.8,48.46-2.05,2.38c-3.71,4.29-7.29,8.71-11.19,12.82-2.08,2.21-5.26,3.11-7.78,1.36-2-1.37-4.27-4.07-4.25-6.17,0-2.55,1.8-5.57,3.69-7.55,7.89-8.28,14-17.62,17.53-28.46,7.63-23.41,4.93-45.08-11.71-64.09-10.71-12.23-24.29-20.45-38.86-27.18C288.23,76.16,260,69.74,231.32,65c-33.33-5.54-67-7.74-100.72-8.17C105,56.49,82,63.75,61.5,79.15c-33.06,24.79-49.23,70.17-39,110.27C37,246.45,91.7,281,149.33,269.82c17.11-3.31,33.18-9.45,49.12-16.11,24.29-10.14,48.71-19.88,75.26-22.3,9.46-.86,19-1.31,28.47-1.63,4.91-.16,8,3,8,7.31s-2.84,7-7.59,7.38c-3.2.24-6.41.52-9.62.53-24.17.12-47.16,5.75-69.5,14.58-15.71,6.21-31.29,12.79-47.2,18.46-21.09,7.53-43,10.73-65.24,7.51C72.32,280,42.63,260.21,22,227c-.42-.68-.9-1.32-1.35-2a50,50,0,0,0,1.11,12.55c6.72,31.11,23.72,55,51.06,71.26,27,16,56,18.6,85.8,10.68a310.18,310.18,0,0,0,41.77-14.86c31.62-13.51,64-23,98.75-23.1,18.41-.06,34.3-7.65,47.51-20.4C362.06,246.19,369.38,227.77,369.41,205.32Z"/><path d="M137.52,72.29c6.17,0,12.35-.12,18.52,0,5.18.14,8.25,3.23,8.06,7.71-.18,4.23-3.43,7.11-8.37,7-8.89-.12-17.79-.51-26.68-.6-38.12-.4-69.58,24.33-78.21,61.41-9.15,39.28,16.38,81.17,55.39,91.42,18.51,4.86,36.63,3.18,54.27-3,18.6-6.54,36.77-14.32,55.26-21.2,25-9.28,50.72-14.58,77.45-14.58,14.07,0,26.23-4.58,35.52-15.38,8.74-10.16,12.59-22,10.31-35.38-1.28-7.53-5.83-13.23-11.24-18.28-7.41-6.92-16.17-11.77-25.28-15.93-24.9-11.38-51.36-17.27-78.21-21.7-3.29-.54-6.61-.9-9.88-1.55-4.4-.87-7.18-4.63-6.49-8.48a7.54,7.54,0,0,1,8.78-6.14c31.84,4.65,63.18,11.25,92.68,24.65,11.06,5,21.37,11.31,30.14,19.9,15.12,14.81,18.71,32.56,12,52.06-8.44,24.38-26.08,38-51.82,40.65-12.89,1.33-25.92,1.52-38.72,3.39-24.11,3.52-46.46,12.93-68.94,21.89-13.15,5.24-26.53,10.18-40.2,13.74-42.2,11-84.09-7-105.87-44.72C23.73,170.76,34.4,118.44,69.76,91.47A94.39,94.39,0,0,1,130.1,71.64c2.47,0,4.94,0,7.42,0Z"/><path d="M134,101.2c16.82,0,31.2,9.7,36.09,25,4.2,13.09.07,24.22-9.65,33.17-15.6,14.37-41.2,12.9-55.4-2.75a31.53,31.53,0,0,1,3.09-45.86A39.93,39.93,0,0,1,134,101.2Zm.28,14.08c-4.08,1.23-8.44,1.92-12.2,3.79-13.55,6.75-14.32,23.09-1.7,31.41,8.38,5.53,20.3,5.18,28.59-.82,10.24-7.41,10.42-21,.36-28.65C144.91,117.69,139.93,116.12,134.23,115.28Z"/><path d="M187.11,81.05a7.39,7.39,0,0,1-7.18,7.48,7.64,7.64,0,0,1-7.73-7.37,7.46,7.46,0,0,1,14.91-.11Z"/><path d="M332.76,235.56a7.16,7.16,0,0,1-7.14-7.33,7.41,7.41,0,0,1,7.23-7.34,7.62,7.62,0,0,1,7.42,7.59A7.49,7.49,0,0,1,332.76,235.56Z"/></svg>