<svg id="Capa_1" data-name="Capa 1" xmlns="http://www.w3.org/2000/svg" viewBox="0 0 384 384"><defs><style>.cls-1{fill:#fff;}</style></defs><title>icon_</title><path d="M195.73,261.16c-1.34-5.19-2.83-9.91-3.77-14.73-2.45-12.56,0-24.58,4.52-36.31,1.16-3,3.43-3.79,6.35-2.87,3.2,1,6.37,2.1,9.48,3.14-1.38-5.82-3.06-11.51-4-17.32-2-11.84.89-23.08,5-34.06,1-2.53,3.08-3.52,5.81-2.65,3.3,1.06,6.6,2.15,9.71,3.17-1.4-6.51-3.18-12.95-4.1-19.5-1.55-11.08,1.43-21.56,5.31-31.8,1.08-2.84,3.4-3.33,6.19-2.54,12.21,3.47,23.34,8.82,32.07,18.36a21.36,21.36,0,0,0,1.72,1.5c.42-2.74.68-5,1.15-7.33,4-19.64,15.08-33.93,32.87-43.06,10.16-5.22,10.2-5.22,15.23,5,9.74,19.67,9.52,39.17-1.12,58.46-.34.63-.63,1.3-.76,1.57,6.42,0,12.93-.67,19.23.18,6.73.91,13.31,3.12,19.88,5,3.2.92,3.43,3.59,2.65,6.43-4.65,16.91-13.53,30.75-28.92,39.89a6.39,6.39,0,0,0-.84.85l8.68,2.95c4.81,1.65,5.42,3.16,4,8.16-4.68,16.82-13.92,30.25-29.8,39.54,3.77,1.28,6.88,2.28,9.95,3.39,3.76,1.35,4.49,3,3.44,6.91-4.52,16.69-13.3,30.3-28.32,39.45a10.84,10.84,0,0,0-1.35,1.18c3.54,1.19,6.69,2.24,9.84,3.31,2.74.93,4.22,2.73,3.45,5.69-6.06,23.17-19.51,39.67-42.93,46.83-12.45,3.8-24.91,3.12-37.19-1.17-.58-.2-1.2-.3-2.25-.55-.87,2.55-1.76,5.08-2.6,7.63-2.07,6.27-4.08,12.57-6.17,18.84-1.28,3.84-3.43,5.27-6.2,4.26s-3.58-3.27-2.3-7.21c2.84-8.76,5.73-17.5,8.65-26.4-2.67-1-5.14-1.85-7.54-2.87a60.18,60.18,0,0,1-33.92-72.55c.79-2.63,1.61-5.25,2.49-7.85,1.42-4.14,3.27-5.11,7.4-3.85C189.68,259.12,192.58,260.12,195.73,261.16ZM349.08,152.6c-26.92-11.63-60.86,4.12-68.14,34.55C307.49,198.87,341.73,183.11,349.08,152.6Zm-101.44,136c26.27,12,61.36-4.36,67.93-34.57C287.44,242.21,254.34,259.75,247.64,288.65Zm38.61-133.43c28.68-11.74,39.54-48,23.66-72.68C282.13,93.59,270.55,128.87,286.25,155.22ZM271,184c13.14-26.63-4.67-62.22-34-68C225.25,145,243.13,177.26,271,184ZM203.77,217.4c-12.26,30.45,7.46,62.33,34,68C250.56,258.4,233.13,224.17,203.77,217.4ZM187.16,268c-12.45,29.75,6.79,62.27,33.92,68.17C233.44,308.78,217.2,276,187.16,268Zm43.63,71.46c27.65,11.94,61.55-5.08,68.17-34.62C271.78,293,237.86,310.09,230.79,339.47Zm33.42-101.58c28.67,12.46,62.21-6.45,68-34.53C306.45,191.89,272,206.85,264.21,237.89Zm-43.57-71.25c-12.5,27.9,5.87,62.26,33.84,67.9C267.17,207.92,250.12,173.53,220.64,166.64Zm36.52,89.52,10.27-7.43-7.14-2.16C259.27,249.68,258.37,252.45,257.16,256.16ZM240.5,306.85l10.29-7.31-7.21-2.19C242.5,300.67,241.6,303.45,240.5,306.85ZM284.21,198,277,195.76c-1,3-1.85,5.81-3,9.4Zm-21.72-7.19,3.44,9.49c.92-2.76,1.65-5,2.45-7.38ZM249.3,251.21c.91-3,1.57-5.18,2.3-7.58l-5.77-1.9C247.05,245.05,248,247.74,249.3,251.21ZM235,294.45l-5.91-1.91c1.18,3.2,2.13,5.78,3.43,9.34C233.55,298.93,234.22,296.91,235,294.45Z"/><path d="M163.47,221.32c3.58,0,6.9-.07,10.22,0,2.87.08,4.71,1.43,4.93,4.51,2.07,28.82-11,49.59-31.4,60.94A58.32,58.32,0,0,1,117,294.07c-.6,0-1.2.08-2.25.16,0,7.73,0,15.31,0,22.89,0,2.12,0,4.25,0,6.37-.07,2.93-1.5,4.89-4.51,4.87s-4.45-2-4.46-4.91c0-8.5,0-17,0-25.49v-3.41c-5.24-.57-10.36-.69-15.3-1.73-27.14-5.73-46.19-27.94-47.91-55.6-.2-3.36-.21-6.74-.15-10.11.07-4.31,1.59-5.73,6-5.79,3,0,6,0,9.79,0-1.16-1.48-2-2.49-2.75-3.49-10.62-13.32-14-28.73-13-45.36.17-3,1.91-4.5,4.9-4.52H57.93a23.6,23.6,0,0,0-1.4-2.2c-11.35-13.48-15.06-29.27-14.13-46.47.17-3.17,1.87-4.76,5.07-4.74,3.35,0,6.7,0,10.7,0-1-1.33-1.69-2.29-2.43-3.19C44.94,98,41.48,82.48,42.41,65.71c.19-3.46,2.34-4.65,5.52-4.76,12.82-.42,25.17,1.26,36.47,7.85a7.76,7.76,0,0,0,1.45.42c-.41-2.7-.88-5.19-1.16-7.7-2.22-19.79,3.92-36.65,17.83-50.78,7.91-8,7.82-7.92,15.74-.2,12.34,12,22.77,31.53,17,58.56a2.55,2.55,0,0,0,1-.1c11.29-6.55,23.59-8.5,36.43-8,4.64.16,5.77,1.43,6,6.14.89,17.57-3.57,33.37-16,47.43,4,0,7.09,0,10.23,0,4.46.06,5.57,1.35,5.8,5.87.9,17.43-3.42,33.14-15.06,46.5-.13.14-.08.44-.17,1H172c5.52,0,6.47,1.12,6.72,6.48.81,17-3.48,32.39-14.7,45.52A5.89,5.89,0,0,0,163.47,221.32Zm-58,10.16c3-32.49-26.89-57.71-53.8-54C49.35,206.88,74.47,233.5,105.44,231.48Zm-53.69-.93c-3,34.28,29.18,57.93,53.86,53.88C107.49,253.94,81.48,227.82,51.75,230.55Zm53.61-52.47c3.4-30.77-25.12-57.65-53.61-54.07C49,150.93,72.18,179.8,105.36,178.08Zm5.29-85.6c24.82-22,21.22-59.37-.36-76.5C87.5,35.46,87.6,73.33,110.65,92.48Zm4.89,192.26c33.31,2.76,57.67-28.54,53.47-54.21C139.71,227.9,112.41,255.45,115.54,284.74Zm53.72-107.42c-30.9-3.13-57.2,26.1-53.45,54.07C147.53,233.84,172.37,205.09,169.26,177.32Zm-63.75-52.94c2.77-31.22-25.45-57.12-53.72-53.93C48.81,99.65,75.15,127.18,105.51,124.38Zm63.72-.44c-30.27-3.36-57.22,25.61-53.42,54C147.64,180.5,172.44,151.32,169.23,123.94Zm0-53.51c-31.73-3.15-57.28,26.81-53.46,53.95C146.3,127.18,172.36,99.22,169.27,70.43Zm-47.42,63.48h-6.91v9.17ZM115,240.82V250c2.42-3.25,4.51-6.07,6.77-9.13Zm0-53.44v9.09l6.69-9.09ZM105.5,142v-8H99.3Zm0,107V240.9H99.32Zm-6.28-61.61,6.19,8v-8Z"/><path class="cls-1" d="M257.16,256.16c1.21-3.71,2.11-6.48,3.13-9.59l7.14,2.16Z"/><path class="cls-1" d="M240.5,306.85c1.1-3.4,2-6.18,3.08-9.5l7.21,2.19Z"/><path class="cls-1" d="M284.21,198,274,205.16c1.15-3.59,2-6.36,3-9.4Z"/><path class="cls-1" d="M262.49,190.85l5.89,2.11c-.8,2.42-1.53,4.62-2.45,7.38Z"/><path class="cls-1" d="M249.3,251.21c-1.27-3.47-2.25-6.16-3.47-9.48l5.77,1.9C250.87,246,250.21,248.2,249.3,251.21Z"/><path class="cls-1" d="M235,294.45c-.82,2.46-1.49,4.48-2.48,7.43-1.3-3.56-2.25-6.14-3.43-9.34Z"/><path class="cls-1" d="M121.85,133.91l-6.91,9.17v-9.17Z"/><path class="cls-1" d="M115,240.82h6.77c-2.26,3.06-4.35,5.88-6.77,9.13Z"/><path class="cls-1" d="M115.06,187.38h6.69l-6.69,9.09Z"/><path class="cls-1" d="M105.5,142l-6.2-8h6.2Z"/><path class="cls-1" d="M105.55,249l-6.23-8.07h6.23Z"/><path class="cls-1" d="M99.27,187.36h6.19v8Z"/></svg>